# xmcd CD database file
#
# Track frame offsets:
#	150
#	1906
#	11786
#	24907
#	25466
#	42341
#	42874
#	56477
#	57444
#	71417
#	72142
#	88827
#	104971
#	105816
#	116409
#	117269
#	135832
#	154040
#	154931
#
# Disc length: 2108 seconds
#
# Revision: 0
# Processed by: cddbd v1.5.1PL2 Copyright (c) Steve Scherf et al.
# Submitted via: CDex 1.51
#
DISCID=f2083a13
DTITLE=Time Jumpers - On The Air
DYEAR=2000
DGENRE=Country
TTITLE0=Opening Dialogue: Eddie Stubbs
TTITLE1=The Time Jumpers Theme
TTITLE2=Somewhere Down the Road
TTITLE3=Intro: Enchantment to the View
TTITLE4=Enchantment to the View
TTITLE5=Intro: I'm From Texas Too
TTITLE6=I'm From Texas Too
TTITLE7=Intro: Pig Dog Hop
TTITLE8=Pig Dog Hop
TTITLE9=Intro: Mr. Miss Understood
TTITLE10=Mr. Miss Understood
TTITLE11=Unswung
TTITLE12=Intro: Spanish Fandango
TTITLE13=Spanish Fandango
TTITLE14=Intro: Love Me All the Way
TTITLE15=Love Me All the Way
TTITLE16=Jumpin' Time
TTITLE17=Closing Dialogue
TTITLE18=Closing Music
EXTD=YEAR: 2000
EXTT0=
EXTT1=
EXTT2=
EXTT3=
EXTT4=
EXTT5=
EXTT6=
EXTT7=
EXTT8=
EXTT9=
EXTT10=
EXTT11=
EXTT12=
EXTT13=
EXTT14=
EXTT15=
EXTT16=
EXTT17=
EXTT18=
PLAYORDER=
